<svg xmlns="http://www.w3.org/2000/svg" viewBox="0 0 1000 1000"><path d="M967.7 360.9c13.3 45 20.1 91.8 20.1 139.2 0 66-12.9 130-38.4 190.3-24.6 58.2-59.9 110.5-104.8 155.4-44.9 44.9-97.2 80.1-155.4 104.8-60.3 25.5-124.3 38.4-190.3 38.4s-130-12.9-190.3-38.4c-58.2-24.6-110.5-59.9-155.4-104.8-44.9-44.9-80.1-97.2-104.8-155.4C22.9 630 10 566 10 500s12.9-130 38.4-190.3c24.6-58.2 59.9-110.5 104.8-155.4 44.9-44.9 97.2-80.1 155.4-104.8C368.9 24 432.9 11.1 498.9 11.1 624 11.1 743 58.3 834 144l-22.3 23.7c-84.9-80-196-124.1-312.8-124.1C247.3 43.7 42.6 248.4 42.6 500c0 251.6 204.7 456.3 456.3 456.3S955.2 751.6 955.2 500c0-44.2-6.3-87.9-18.8-129.9l31.3-9.2zm-770.5 95l-22.6 22.9 273 271.1L990 168.2l-24.7-23.1-519.2 556.8-248.9-246z"/></svg>