<?xml version="1.0" encoding="utf-8"?>
<!-- Svg Vector Icons : http://www.onlinewebfonts.com/icon -->
<!DOCTYPE svg PUBLIC "-//W3C//DTD SVG 1.1//EN" "http://www.w3.org/Graphics/SVG/1.1/DTD/svg11.dtd">
<svg version="1.1" xmlns="http://www.w3.org/2000/svg" xmlns:xlink="http://www.w3.org/1999/xlink" x="0px" y="0px" viewBox="0 0 1000 1000" enable-background="new 0 0 1000 1000" xml:space="preserve">
<metadata> Svg Vector Icons : http://www.onlinewebfonts.com/icon </metadata>
<g><path d="M967.7,360.9c13.3,45,20.1,91.8,20.1,139.2c0,66-12.9,130-38.4,190.3c-24.6,58.2-59.9,110.5-104.8,155.4c-44.9,44.9-97.2,80.1-155.4,104.8c-60.3,25.5-124.3,38.4-190.3,38.4s-130-12.9-190.3-38.4c-58.2-24.6-110.5-59.9-155.4-104.8c-44.9-44.9-80.1-97.2-104.8-155.4C22.9,630,10,566,10,500c0-66,12.9-130,38.4-190.3c24.6-58.2,59.9-110.5,104.8-155.4c44.9-44.9,97.2-80.1,155.4-104.8C368.9,24,432.9,11.1,498.9,11.1C624,11.1,743,58.3,834,144l-22.3,23.7c-84.9-80-196-124.1-312.8-124.1C247.3,43.7,42.6,248.4,42.6,500c0,251.6,204.7,456.3,456.3,456.3S955.2,751.6,955.2,500c0-44.2-6.3-87.9-18.8-129.9L967.7,360.9z M197.2,455.9l-22.6,22.9l273,271.1L990,168.2l-24.7-23.1L446.1,701.9L197.2,455.9z"/></g>
</svg>